<svg xmlns="http://www.w3.org/2000/svg"
 width="2712" height="2640" viewBox="0 0 2712 2640"
 preserveAspectRatio="xMidYMid meet">
<g transform="translate(0.000000,2640.000000) scale(0.100000,-0.100000)"
fill="#ce9e62" stroke="none">
<path d="M13190 25753 c-913 -13 -1867 -138 -2770 -363 -2638 -656 -4952
-2120 -6695 -4235 -1609 -1953 -2594 -4387 -2799 -6915 -29 -355 -37 -588 -37
-1040 0 -452 8 -685 37 -1040 205 -2528 1190 -4962 2799 -6915 1470 -1784
3356 -3113 5495 -3873 1172 -416 2305 -643 3565 -712 258 -15 1052 -15 1310 0
1116 61 2103 241 3150 572 2307 730 4345 2114 5910 4013 1609 1953 2594 4387
2799 6915 29 355 37 588 37 1040 0 452 -8 685 -37 1040 -205 2528 -1190 4962
-2799 6915 -1470 1784 -3356 3113 -5495 3873 -1456 517 -2879 748 -4470 725z
m805 -493 c1398 -73 2692 -357 3964 -870 2501 -1008 4589 -2823 5935 -5158
908 -1577 1445 -3321 1586 -5152 41 -540 41 -1220 0 -1760 -98 -1267 -378
-2469 -850 -3639 -1008 -2501 -2823 -4589 -5158 -5935 -1577 -908 -3321 -1445
-5152 -1586 -540 -41 -1220 -41 -1760 0 -1267 98 -2469 378 -3639 850 -2501
1008 -4589 2823 -5935 5158 -908 1577 -1445 3321 -1586 5152 -41 540 -41 1220
0 1760 98 1267 378 2469 850 3639 1008 2501 2823 4589 5158 5935 1578 909
3324 1446 5157 1586 386 30 1066 39 1430 20z"/>
<path d="M19825 22122 c-93 -1 -2058 -4 -4365 -6 -4700 -5 -4482 -4 -4530 -5
-19 0 -73 0 -120 1 -47 1 -141 1 -210 0 -400 -4 -908 -4 -1155 -1 -215 2
-2033 4 -2060 1 -16 -1 -91 -1 -165 1 -74 2 -160 1 -190 -3 -33 -5 -60 -4 -67
2 -7 6 -74 8 -165 6 l-153 -4 0 -190 c1 -316 2 -540 4 -739 4 -284 3 -374 -4
-800 -4 -214 -7 -410 -7 -435 1 -25 0 -110 0 -190 0 -80 1 -174 3 -210 2 -36
3 -213 2 -395 -1 -474 -2 -587 0 -995 0 -201 -1 -399 -3 -440 -2 -41 0 -149 5
-240 8 -171 9 -703 4 -2730 -1 -245 0 -611 2 -815 1 -203 2 -422 2 -485 -2
-176 -3 -663 -2 -770 1 -52 -2 -201 -5 -330 -3 -129 -5 -309 -4 -400 1 -91 3
-316 4 -500 1 -184 2 -425 4 -535 1 -110 -1 -319 -4 -465 -9 -356 -10 -1068
-1 -1258 4 -114 3 -157 -6 -168 -9 -11 -10 -57 -5 -182 11 -239 8 -225 42
-234 16 -5 72 -8 124 -7 52 0 187 0 300 -1 113 -1 273 -1 355 0 83 1 166 2
185 2 669 -4 1533 -1 1625 6 65 4 134 3 195 -6 67 -9 115 -10 165 -3 38 5 122
7 185 4 125 -7 118 -7 1005 2 336 4 633 5 660 4 28 -2 301 -3 608 -3 l557 -1
1 -30 c3 -48 9 -593 8 -670 -4 -339 -3 -966 1 -1115 4 -125 4 -168 -4 -710 -4
-272 -7 -515 -7 -540 4 -527 11 -1152 13 -1245 l3 -120 769 0 770 0 -3 570
c-1 314 -2 599 -1 635 0 36 1 202 1 370 0 667 1 785 1 1035 1 88 1 216 0 285
0 69 0 256 0 415 0 160 -1 398 -2 530 -2 250 -1 588 3 591 1 1 27 -2 58 -6 31
-4 133 -6 225 -4 182 5 457 6 1034 4 624 -2 1202 2 1249 9 30 4 60 2 86 -8 48
-17 205 -19 258 -3 26 7 56 8 95 1 37 -6 102 -5 187 2 158 13 137 13 215 0 65
-10 283 -7 466 7 49 4 112 4 140 0 27 -5 78 -5 114 -1 106 11 300 1 298 -16 0
-3 0 -999 1 -2212 l1 -2206 787 1 787 1 0 140 c0 206 -12 567 -19 586 -3 10
-2 34 4 56 13 46 16 17142 4 17154 -10 10 -146 15 -358 11z m-7225 -3742 l0
-2140 -2160 0 -2160 0 0 2140 0 2140 2160 0 2160 0 0 -2140z m5960 -3000 l0
-5100 -2120 0 -2120 0 0 5103 0 5102 2120 -3 2120 -2 0 -5100z m-5920 -3000
l0 -2140 -2180 0 -2180 0 0 2140 0 2140 2180 0 2180 0 0 -2140z"/>
</g>
</svg>
